{
  "asset": {
    "version": "2.0"
  },
  "scene": 0,
  "scenes": [
    {
      "nodes": [0]
    }
  ],
  "nodes": [
    {
      "mesh": 0
    }
  ],
  "meshes": [
    {
      "primitives": [
        {
          "attributes": {
            "POSITION": 1,
            "NORMAL": 2,
            "TEXCOORD_0": 3
          },
          "indices": 0,
          "material": 0
        }
      ]
    }
  ],
  "materials": [
    {
      "name": "GroundPreview",
      "pbrMetallicRoughness": {
        "baseColorFactor": [1.000000, 1.000000, 1.000000, 1.000000],
        "baseColorTexture": {
          "index": 0
        },
        "metallicFactor": 1.000000,
        "roughnessFactor": 1.000000,
        "metallicRoughnessTexture": {
          "index": 2
        }
      },
      "normalTexture": {
        "index": 1,
        "scale": 1.000000
      },
      "occlusionTexture": {
        "index": 2,
        "strength": 1.000000
      }
    }
  ],
  "samplers": [
    {
      "magFilter": 9729,
      "minFilter": 9987,
      "wrapS": 10497,
      "wrapT": 10497
    }
  ],
  "images": [
    {
      "uri": "ground_pbr/red_laterite_soil_stones_diff_1k.jpg"
    },
    {
      "uri": "ground_pbr/red_laterite_soil_stones_nor_gl_1k.jpg"
    },
    {
      "uri": "ground_pbr/red_laterite_soil_stones_arm_1k.jpg"
    }
  ],
  "textures": [
    {
      "sampler": 0,
      "source": 0
    },
    {
      "sampler": 0,
      "source": 1
    },
    {
      "sampler": 0,
      "source": 2
    }
  ],
  "buffers": [
    {
      "byteLength": 233504,
      "uri": "data:application/octet-stream;base64,"
    }
  ],
  "bufferViews": [
    {
      "buffer": 0,
      "byteOffset": 0,
      "byteLength": 98304,
      "target": 34963
    },
    {
      "buffer": 0,
      "byteOffset": 98304,
      "byteLength": 50700,
      "target": 34962
    },
    {
      "buffer": 0,
      "byteOffset": 149004,
      "byteLength": 50700,
      "target": 34962
    },
    {
      "buffer": 0,
      "byteOffset": 199704,
      "byteLength": 33800,
      "target": 34962
    }
  ],
  "accessors": [
    {
      "bufferView": 0,
      "componentType": 5125,
      "count": 24576,
      "type": "SCALAR",
      "max": [4224],
      "min": [0]
    },
    {
      "bufferView": 1,
      "componentType": 5126,
      "count": 4225,
      "type": "VEC3",
      "max": [1974.830444, 2.369909, 1932.822632],
      "min": [-1973.130005, -142.764069, -1974.123413]
    },
    {
      "bufferView": 2,
      "componentType": 5126,
      "count": 4225,
      "type": "VEC3"
    },
    {
      "bufferView": 3,
      "componentType": 5126,
      "count": 4225,
      "type": "VEC2",
      "max": [96.000000, 96.000000],
      "min": [0.000000, 0.000000]
    }
  ]
}
